<svg xmlns="http://www.w3.org/2000/svg" width="595" height="106"><g fill="none" fill-rule="evenodd"><path d="M0 0h595v106H0z"/><g fill="#23085A" fill-rule="nonzero" transform="translate(0 16.9)"><path d="M86.2 33.3V2.8h11.2c2.4 0 4 .4 5.3 1 3.1 1.5 4.5 4.3 4.5 6.9 0 2.6-1.2 4.9-3.7 6.4 3.5.9 5.7 3.3 5.7 7s-2.5 7.3-6.8 8.6c-1.5.5-3.2.7-5.8.7H86.2M99.9 8c-.7-.3-1.5-.5-2.9-.5h-5.6v8h5.3c1.7 0 2.7-.3 3.4-.7 1.2-.7 1.8-1.9 1.8-3.3s-.7-2.8-2-3.4m1.6 12.6c-.7-.3-1.7-.5-3.5-.5h-6.6v8.4h6.2c1.9 0 3-.2 3.9-.7 1.5-.7 2.2-2 2.2-3.8 0-1.8-.8-2.8-2.3-3.5l.1.1Zm38.2-17.9h5.2v30.5h-5.2V2.8Zm38 0h5.2v30.5h-5.2V2.8Zm22.1-.3c3.3 0 6.6.8 8.5 1.7v5c-2.7-1.3-5.4-2.1-8.6-2.1-3.2 0-5.3.9-5.3 3.3 0 6.2 15.7 3.8 15.7 14.1s-4.8 9.3-11.8 9.3c-7 0-8.1-1.3-10.3-2.7l2.2-4.3c1.9 1.2 4.8 2.4 8.3 2.4 3.5 0 6.1-1.2 6.1-4 0-6.5-15.6-3.7-15.6-14.1 0-10.4 4.4-8.6 10.9-8.6h-.1Zm35 30.8V20.2H220v13.1h-5.2V2.8h5.2v12.5h14.8V2.8h5.2v30.5h-5.2Zm-137 5.4c3.3 0 5.9.7 8.5 1.8l-1.6 4.5c-1.5-.7-3.4-1.5-6.3-1.5-5.8 0-9.4 4.9-9.4 10.9s3.4 10.9 9.4 10.9 4.9-.8 6.3-1.5l1.6 4.4c-2.6 1.2-5.1 1.8-8.5 1.8-9.1 0-14.3-6.4-14.3-15.5s5.2-15.7 14.3-15.7v-.1Zm114.4 0c3.3 0 5.9.7 8.5 1.8l-1.6 4.5c-1.5-.7-3.4-1.5-6.4-1.5-5.8 0-9.4 4.9-9.4 10.9s3.4 10.9 9.4 10.9 4.9-.8 6.4-1.5l1.6 4.4c-2.6 1.2-5.1 1.8-8.5 1.8-9.1 0-14.4-6.4-14.4-15.5s5.2-15.7 14.4-15.7v-.1Zm-76.1 15.5c0 9.2-5.8 15.7-14.4 15.7-8.6 0-14.4-6.3-14.4-15.5s5.8-15.7 14.4-15.7c8.6 0 14.4 6.3 14.4 15.5m-5.5.1c0-6.7-3.8-10.9-8.9-10.9-5.1 0-8.9 4.3-8.9 11s3.8 10.9 8.9 10.9c5.1 0 8.9-4.2 8.9-11Zm9.1 3.7V39h5.2v19.2c0 5.1 2.7 7 7.1 7 4.4 0 7.1-1.9 7.1-7V39h5.2v19c0 8.3-4.7 11.9-12.4 11.9s-12.2-3.7-12.2-11.9Zm34.4-10.8c0 1 .1 2.6.1 4.1v18.1H169V38.9h5.6l14.2 20.8h.1c-.1-1-.1-2.6-.1-4.1V38.9h5.2v30.5h-4.6l-15.2-22.2h-.1Zm50.7-8.3h5.2v30.5h-5.2V38.9Zm10 30.6V38.9h5.2v25.8h12v4.8h-17.2ZM173.7 2.8h-24.8v4.8h9.8v25.7h5.2V7.6h9.8V2.8Zm-43.4 30.5c-4.4-9.2-5.6-11.8-7.4-11.8H118v11.8h-5.2V2.8h10.3C131 2.8 134 7 134 11.6c0 4.6-2.4 6.8-5.6 7.8 1.4.8 2.9 3.7 8 13.9h-6.1Zm-6.9-25.8H118v9.3h5.2c3.8 0 5.5-1.9 5.5-4.7 0-2.8-1.6-4.5-5.3-4.5v-.1Z"/><circle cx="17.5" cy="54.8" r="17.5"/><circle cx="54.8" cy="54.8" r="17.5"/><circle cx="17.5" cy="17.5" r="17.5"/><circle cx="54.8" cy="17.5" r="17.5"/><path d="M286.7 69.5V2.7h42.1V13h-29.1v16H324v10.3h-24.3v19.3h30.2v10.8h-43.3l.1.1Zm85.9 0V38.1c0-5.8-1.5-9.4-6.8-9.4s-8.8 2.7-12.1 5.2v35.6h-12.5V18.9h11.9v5.8c4.8-3.6 10.3-6.8 16.9-6.8 10 0 15.1 6 15.1 15.3v36.3h-12.5Zm45.3 18.3c-9.3 0-16.1-2.6-22-7.2l5.6-8c4.4 3.5 9.7 5.7 16.2 5.7s12-4 12-10.8v-4.8c-4.2 4.2-8.5 6.1-14.5 6.1-11.8 0-20.4-9.5-20.4-25.3s8.5-25.6 20.4-25.6c11.9 0 10.9 2.5 14.8 6.8v-5.8h11.9V68c0 11.7-7.8 19.7-24 19.7v.1Zm.6-60.3c-7.2 0-10.8 6.3-10.8 15.9 0 9.6 3.5 15.8 11 15.8s8.1-2.8 10.7-5.4V33.3c-2.8-2.9-6.6-5.8-10.9-5.8Zm35.6 42v-68h12.5v68h-12.5Zm24.7-58.1V1.5h12.5v9.9h-12.5Zm0 58.1V18.9h12.5v50.6h-12.5Zm62.7-15c0 11.1-10.4 16-21.2 16-10.8 0-14.8-2.2-20.5-7.6l5.8-7.3c4.4 3.7 10.3 5.9 14.7 5.9 4.4 0 8.7-2.4 8.7-5.6 0-3.2-2.3-4.4-8.2-6.5l-5.4-1.8C507 44.7 502 41.2 502 32.9c0-8.3 5.4-15.1 20.2-15.1 14.8 0 13 2 18.7 6.8l-5.8 7.4c-4.2-3.5-8.7-5.2-13-5.2-4.3 0-7.6 1.9-7.6 4.8s2.2 4.1 6.5 5.6l5.3 1.8c9.3 3.1 15.2 6.6 15.2 15.5Zm40.6 15V38.2c0-6.1-1.4-9.5-6.8-9.5s-8.5 2.4-12.1 5.2v35.6h-12.5v-68h12.5v22.8c4.4-3.1 9.7-6.3 16.3-6.3 10 0 15.1 6 15.1 15.3v36.3h-12.5v-.1Z"/></g></g></svg>